<?xml version="1.0" encoding="UTF-8"?>
<svg xmlns="http://www.w3.org/2000/svg" xmlns:xlink="http://www.w3.org/1999/xlink" viewBox="0 0 50 50" width="50px" height="50px">
<g id="surface1424944">
<path style=" stroke:none;fill-rule:nonzero;fill:rgb(26.666668%,33.725491%,98.431373%);fill-opacity:1;" d="M 14.617188 28.417969 C 14.425781 27.9375 14.230469 27.460938 14.035156 26.984375 C 13.554688 25.644531 13.746094 24.402344 14.714844 23.351562 C 15.488281 22.492188 16.453125 21.820312 17.710938 21.726562 C 18.484375 21.632812 19.160156 21.820312 19.738281 22.203125 C 19.835938 22.300781 19.933594 22.300781 20.128906 22.394531 C 20.03125 22.109375 19.933594 21.917969 19.835938 21.632812 C 18.871094 18.667969 17.808594 15.703125 16.839844 12.742188 C 16.453125 11.5 16.164062 10.257812 15.875 9.015625 C 15.875 7.867188 15.96875 6.816406 16.355469 5.859375 C 17.128906 4.234375 18.578125 3.855469 19.738281 4.046875 C 20.511719 4.234375 20.996094 4.714844 21.382812 5.289062 C 22.253906 6.433594 22.929688 7.675781 23.605469 9.015625 C 24.960938 11.691406 25.925781 14.558594 26.894531 17.425781 C 27.085938 18 27.28125 18.476562 27.472656 19.050781 C 27.472656 19.144531 27.570312 19.144531 27.664062 19.242188 C 27.859375 18.667969 28.148438 18.09375 28.34375 17.425781 C 29.117188 15.035156 29.984375 12.648438 31.144531 10.449219 C 31.824219 9.015625 32.597656 7.484375 33.660156 6.242188 C 33.757812 5.957031 34.046875 5.765625 34.238281 5.574219 C 35.59375 4.332031 37.429688 4.714844 38.300781 5.859375 C 39.070312 6.816406 39.265625 7.867188 39.167969 9.015625 C 38.976562 10.640625 38.492188 12.265625 38.007812 13.890625 C 37.140625 16.46875 36.171875 19.050781 35.300781 21.632812 C 35.300781 21.726562 35.207031 21.820312 35.207031 21.917969 C 35.398438 22.015625 35.59375 22.015625 35.785156 22.109375 C 36.945312 22.492188 38.105469 22.96875 38.78125 24.019531 C 39.265625 24.785156 39.554688 25.644531 39.75 26.507812 C 40.039062 27.9375 40.039062 29.371094 39.941406 30.808594 C 39.847656 32.71875 39.460938 34.628906 38.78125 36.351562 C 37.332031 39.886719 35.011719 42.65625 31.53125 44.378906 C 29.792969 45.238281 27.859375 45.8125 25.925781 45.90625 C 23.21875 46.195312 20.609375 45.8125 18.097656 44.761719 C 14.808594 43.421875 11.523438 40.078125 10.558594 37.019531 C 10.074219 35.488281 9.882812 34.054688 10.074219 32.429688 C 10.363281 30.425781 11.621094 29.085938 13.554688 28.511719 C 13.941406 28.511719 14.328125 28.511719 14.617188 28.417969 Z M 14.132812 33.769531 C 14.230469 33.960938 14.425781 34.054688 14.519531 34.246094 C 15.003906 34.820312 15.390625 35.394531 15.875 35.96875 C 16.453125 36.636719 17.035156 37.304688 17.808594 37.59375 C 18.484375 37.878906 19.0625 37.878906 19.738281 37.59375 C 20.320312 37.304688 20.417969 36.925781 20.320312 36.351562 C 20.222656 36.160156 20.128906 35.96875 20.03125 35.777344 C 19.351562 34.4375 18.484375 33.195312 17.421875 32.144531 C 16.839844 31.570312 16.355469 30.996094 15.679688 30.519531 C 15.101562 30.042969 14.519531 30.042969 13.941406 30.425781 C 13.070312 30.996094 12.492188 31.761719 12.199219 32.8125 C 11.910156 33.863281 12.105469 34.914062 12.492188 35.871094 C 13.457031 38.453125 15.101562 40.554688 17.421875 41.988281 C 20.898438 44.1875 24.671875 44.664062 28.535156 43.421875 C 32.984375 41.988281 35.785156 38.835938 37.332031 34.535156 C 38.007812 32.71875 38.105469 30.710938 38.105469 28.800781 C 38.105469 27.84375 38.007812 26.886719 37.71875 26.027344 C 37.429688 25.261719 36.945312 24.59375 36.171875 24.210938 C 35.6875 24.019531 35.300781 23.828125 34.820312 23.636719 C 31.824219 22.585938 28.730469 22.300781 25.636719 22.015625 C 24.960938 22.015625 24.378906 22.015625 23.703125 22.203125 C 23.21875 22.394531 22.832031 22.683594 22.832031 23.257812 C 22.738281 24.402344 23.121094 25.359375 24.089844 26.027344 C 24.765625 26.507812 25.636719 26.792969 26.507812 26.984375 C 28.441406 27.367188 30.46875 27.367188 32.5 27.367188 C 32.984375 27.367188 33.367188 27.367188 33.851562 27.460938 C 34.335938 27.558594 34.433594 27.9375 34.527344 28.417969 C 34.625 28.800781 34.335938 28.992188 34.046875 29.085938 C 33.464844 29.371094 32.984375 29.5625 32.402344 29.753906 C 30.082031 30.617188 28.34375 32.144531 27.085938 34.246094 C 26.214844 35.777344 25.925781 37.402344 26.601562 39.121094 C 26.796875 39.503906 26.894531 39.886719 26.988281 40.363281 C 27.085938 40.746094 27.183594 41.226562 27.085938 41.703125 C 26.121094 41.511719 25.539062 41.03125 25.054688 40.269531 C 24.671875 39.503906 24.476562 38.644531 24.378906 37.785156 C 24.28125 37.304688 24.28125 36.828125 24.28125 36.351562 C 23.703125 36.730469 23.027344 36.636719 22.351562 36.539062 C 22.351562 36.730469 22.445312 36.828125 22.445312 36.925781 C 22.738281 38.070312 22.253906 39.121094 21.285156 39.789062 C 20.511719 40.363281 19.546875 40.363281 18.675781 40.171875 C 17.128906 39.789062 15.96875 38.835938 15.003906 37.59375 C 14.519531 36.925781 14.035156 36.160156 13.941406 35.394531 C 13.652344 34.628906 13.652344 34.246094 14.132812 33.769531 Z M 25.734375 20.484375 L 25.734375 20.390625 C 24.863281 17.808594 23.992188 15.132812 23.027344 12.550781 C 22.445312 10.925781 21.769531 9.207031 21.09375 7.582031 C 20.898438 7.105469 20.609375 6.625 20.128906 6.242188 C 19.257812 5.671875 18.289062 5.957031 18 6.910156 C 17.902344 7.296875 17.808594 7.675781 17.902344 8.058594 C 17.902344 9.207031 18.195312 10.257812 18.578125 11.308594 C 19.738281 14.464844 20.804688 17.617188 21.964844 20.769531 C 23.121094 20.007812 24.476562 20.484375 25.734375 20.484375 Z M 33.078125 21.535156 C 33.078125 21.441406 33.175781 21.441406 33.175781 21.34375 C 34.527344 17.714844 35.785156 14.082031 36.945312 10.351562 C 37.140625 9.589844 37.332031 8.921875 37.234375 8.058594 C 37.140625 7.296875 36.65625 6.910156 36.074219 6.816406 C 35.59375 6.816406 35.109375 7.007812 34.820312 7.390625 C 34.238281 8.058594 33.851562 8.824219 33.5625 9.589844 C 32.015625 13.21875 30.855469 16.949219 29.601562 20.675781 C 29.601562 20.675781 29.601562 20.769531 29.601562 20.867188 C 30.664062 21.058594 31.824219 21.25 33.078125 21.535156 Z M 24.28125 33.003906 C 24.28125 32.8125 24.28125 32.621094 24.1875 32.429688 C 23.898438 31.761719 23.703125 31.09375 23.414062 30.328125 C 22.640625 28.511719 21.671875 26.695312 20.417969 25.070312 C 20.03125 24.59375 19.546875 24.117188 18.96875 23.828125 C 17.710938 23.257812 15.875 24.402344 15.96875 25.835938 L 15.96875 25.933594 C 16.164062 26.410156 16.261719 26.984375 16.453125 27.460938 C 17.515625 29.5625 18.96875 31.378906 20.609375 33.101562 C 21.09375 33.578125 21.671875 34.054688 22.351562 34.34375 C 23.316406 34.726562 24.28125 34.054688 24.28125 33.003906 Z M 26.121094 32.050781 C 26.894531 30.902344 27.957031 30.136719 29.117188 29.277344 C 27.570312 29.183594 26.121094 28.992188 24.765625 28.511719 C 25.152344 29.660156 25.636719 30.808594 26.121094 32.050781 Z M 26.121094 32.050781 "/>
</g>
</svg>
