<?xml version="1.0" encoding="UTF-8"?>
<svg xmlns="http://www.w3.org/2000/svg" xmlns:xlink="http://www.w3.org/1999/xlink" viewBox="0 0 64 64" width="64px" height="64px">
<defs>
<radialGradient id="radial0" gradientUnits="userSpaceOnUse" cx="117.73188" cy="134.413498" fx="117.73188" fy="134.413498" r="154.979507" gradientTransform="matrix(0.283186,0,0,0.283186,0,0)">
<stop offset="0" style="stop-color:rgb(95.686275%,91.37255%,76.47059%);stop-opacity:1;"/>
<stop offset="0.219" style="stop-color:rgb(97.254902%,93.333334%,80.392158%);stop-opacity:1;"/>
<stop offset="0.644" style="stop-color:rgb(99.215686%,95.686275%,86.274511%);stop-opacity:1;"/>
<stop offset="1" style="stop-color:rgb(100%,96.470588%,88.235295%);stop-opacity:1;"/>
</radialGradient>
<linearGradient id="linear0" gradientUnits="userSpaceOnUse" x1="113" y1="20.209339" x2="113" y2="197.502808" gradientTransform="matrix(0.283186,0,0,0.283186,0,0)">
<stop offset="0" style="stop-color:rgb(64.313728%,64.313728%,64.313728%);stop-opacity:1;"/>
<stop offset="0.619" style="stop-color:rgb(25.882354%,32.549021%,94.509804%);stop-opacity:1;"/>
<stop offset="1" style="stop-color:rgb(43.529412%,43.529412%,43.529412%);stop-opacity:1;"/>
</linearGradient>
</defs>
<g id="surface776055">
<path style=" stroke:none;fill-rule:nonzero;fill:url(#radial0);" d="M 51.03125 37.339844 C 51.191406 38.320312 52.109375 39 53.109375 39 L 58.5 39 C 61.128906 39 63.25 41.28125 62.980469 43.960938 C 62.738281 46.300781 60.640625 48 58.289062 48 L 49 48 C 47.78125 48 46.820312 49.078125 47.03125 50.339844 C 47.191406 51.320312 48.109375 52 49.109375 52 L 57.5 52 C 58.738281 52 59.871094 52.5 60.679688 53.320312 C 61.5 54.128906 62 55.261719 62 56.5 C 62 58.988281 59.988281 61 57.5 61 L 8.5 61 C 6.980469 61 5.601562 60.378906 4.609375 59.390625 C 3.621094 58.398438 3 57.019531 3 55.5 C 3 52.460938 5.460938 50 8.5 50 L 14 50 C 15.21875 50 16.179688 48.921875 15.96875 47.660156 C 15.808594 46.679688 14.890625 44 13.890625 44 L 5.5 44 C 2.871094 44 0.75 41.71875 1.019531 39.039062 C 1.261719 36.699219 3.359375 35 5.710938 35 L 8 35 C 9.710938 35 11.089844 33.570312 11 31.839844 C 10.910156 30.21875 9.449219 29 7.828125 29 L 4.5 29 C 1.871094 29 -0.25 26.71875 0.0195312 24.039062 C 0.261719 21.699219 2.371094 20 4.710938 20 L 20 20 C 20.828125 20 21.578125 19.660156 22.121094 19.121094 C 22.660156 18.578125 23 17.828125 23 17 C 23 15.339844 21.660156 14 20 14 L 18.820312 14 C 18.199219 13.910156 17.390625 14 16.5 14 L 7.5 14 C 5.980469 14 4.601562 13.378906 3.609375 12.390625 C 2.621094 11.398438 2 10.019531 2 8.5 C 2 5.460938 4.460938 3 7.5 3 L 56.5 3 C 59.710938 3 62.300781 5.789062 61.96875 9.058594 C 61.679688 11.921875 60.109375 14 57.238281 14 L 52 14 C 49.238281 14 47 16.238281 47 19 C 47 20.378906 47.558594 21.628906 48.460938 22.539062 C 49.371094 23.441406 50.621094 24 52 24 L 58.5 24 C 61.710938 24 64.300781 26.789062 63.96875 30.058594 C 63.679688 32.921875 61.109375 35 58.238281 35 L 53 35 C 51.78125 35 50.820312 36.078125 51.03125 37.339844 Z M 51.03125 37.339844 "/>
<path style=" stroke:none;fill-rule:nonzero;fill:url(#linear0);" d="M 58 32 C 58 45.351562 47.949219 56.339844 35 57.828125 C 34.019531 57.941406 33.011719 58 32 58 C 30.289062 58 28.621094 57.828125 27 57.511719 C 15.03125 55.191406 6 44.648438 6 32 C 6 17.640625 17.640625 6 32 6 C 46.359375 6 58 17.640625 58 32 Z M 58 32 "/>
<path style=" stroke:none;fill-rule:nonzero;fill:rgb(100%,100%,100%);fill-opacity:1;" d="M 22.972656 57.167969 C 22.96875 57.167969 22.960938 57.164062 22.953125 57.164062 C 22.960938 57.164062 22.96875 57.167969 22.972656 57.167969 Z M 22.972656 57.167969 "/>
<path style=" stroke:none;fill-rule:nonzero;fill:rgb(100%,100%,100%);fill-opacity:1;" d="M 40 56.726562 L 40 50.460938 C 40 47.726562 38.167969 44.101562 35.660156 42.808594 C 44.777344 41.878906 49.132812 37.402344 49.132812 31.324219 C 49.132812 28.710938 48.007812 26.183594 46.097656 24.054688 C 46.734375 21.941406 47.535156 17.605469 45.863281 15.957031 C 41.742188 15.957031 39.257812 18.59375 38.667969 19.296875 C 36.613281 18.601562 34.355469 18.210938 31.988281 18.210938 C 29.625 18.210938 27.375 18.601562 25.328125 19.292969 C 24.730469 18.585938 22.246094 15.957031 18.136719 15.957031 C 16.472656 17.601562 17.265625 21.921875 17.894531 24.039062 C 15.972656 26.171875 14.839844 28.707031 14.839844 31.324219 C 14.839844 37.40625 19.199219 41.886719 28.335938 42.8125 C 26.75 43.628906 25.453125 45.355469 24.703125 47.230469 C 23.308594 47.449219 21.828125 47.503906 20.839844 47.503906 C 18.796875 47.503906 18.285156 47.183594 17.191406 45.773438 C 16.09375 44.363281 14.929688 43.410156 13.523438 43.019531 C 12.761719 42.941406 12.257812 43.523438 12.917969 44.035156 C 15.144531 45.570312 15.300781 48.085938 16.199219 49.726562 C 17.007812 51.203125 18.675781 52 20.554688 52 C 21.023438 52 22.886719 52 24 52 L 24 56.738281 C 24 56.988281 27.996094 58.054688 31.996094 58.054688 C 36.550781 58.054688 40 56.832031 40 56.726562 Z M 40 56.726562 "/>
</g>
</svg>
