<?xml version="1.0" encoding="UTF-8"?>
<svg xmlns="http://www.w3.org/2000/svg" xmlns:xlink="http://www.w3.org/1999/xlink" viewBox="0 0 48 48" width="48px" height="48px">
<defs>
<linearGradient id="linear0" gradientUnits="userSpaceOnUse" x1="37.055248" y1="29.78467" x2="146.192825" y2="138.922256" gradientTransform="matrix(0.27907,0,0,0.27907,0,0)">
<stop offset="0" style="stop-color:rgb(25.882354%,32.549021%,94.509804%);stop-opacity:1;"/>
<stop offset="1" style="stop-color:rgb(0%,47.843137%,85.09804%);stop-opacity:1;"/>
</linearGradient>
</defs>
<g id="surface850450">
<path style=" stroke:none;fill-rule:nonzero;fill:url(#linear0);" d="M 46.105469 11.019531 C 44.554688 11.707031 42.886719 12.164062 41.125 12.382812 C 42.914062 11.320312 44.292969 9.625 44.9375 7.625 C 43.265625 8.605469 41.410156 9.324219 39.4375 9.707031 C 37.859375 8.035156 35.613281 7 33.121094 7 C 28.339844 7 24.460938 10.84375 24.460938 15.582031 C 24.460938 16.253906 24.539062 16.90625 24.6875 17.539062 C 17.492188 17.179688 11.109375 13.757812 6.839844 8.566406 C 6.089844 9.835938 5.664062 11.320312 5.664062 12.886719 C 5.664062 15.867188 7.191406 18.488281 9.515625 20.035156 C 8.097656 19.992188 6.761719 19.597656 5.589844 18.964844 C 5.589844 18.988281 5.589844 19.027344 5.589844 19.0625 C 5.589844 23.226562 8.578125 26.695312 12.535156 27.484375 C 11.8125 27.679688 11.046875 27.789062 10.257812 27.789062 C 9.699219 27.789062 9.15625 27.726562 8.628906 27.632812 C 9.730469 31.035156 12.925781 33.523438 16.714844 33.597656 C 13.75 35.894531 10.015625 37.269531 5.957031 37.269531 C 5.257812 37.269531 4.570312 37.230469 3.894531 37.148438 C 7.730469 39.578125 12.28125 41 17.171875 41 C 33.097656 41 41.8125 27.921875 41.8125 16.574219 C 41.8125 16.203125 41.800781 15.832031 41.78125 15.464844 C 43.484375 14.265625 44.949219 12.75 46.105469 11.019531 "/>
</g>
</svg>
