<?xml version="1.0" encoding="UTF-8"?>
<svg xmlns="http://www.w3.org/2000/svg" xmlns:xlink="http://www.w3.org/1999/xlink" viewBox="0 0 50 50" width="50px" height="50px">
<g id="surface3272294">
<path style=" stroke:none;fill-rule:nonzero;fill:rgb(100%,100%,100%);fill-opacity:1;" d="M 12 6 C 10.300781 6 9 7.300781 9 9 L 9 39 L 11 37 L 11 9 C 11 8.398438 11.398438 8 12 8 L 38 8 C 38.601562 8 39 8.398438 39 9 L 39 41 C 39 41.601562 38.601562 42 38 42 L 16 42 L 14 44 L 38 44 C 39.699219 44 41 42.699219 41 41 L 41 9 C 41 7.300781 39.699219 6 38 6 Z M 16 25 L 16 27 L 24.59375 27 L 9.09375 42.5 L 10.5 43.90625 L 26 28.40625 L 26 37 L 28 37 L 28 25 Z M 16 25 "/>
</g>
</svg>
