<?xml version="1.0" encoding="UTF-8"?>
<svg xmlns="http://www.w3.org/2000/svg" xmlns:xlink="http://www.w3.org/1999/xlink" viewBox="0 0 24 24" width="24px" height="24px">
<g id="surface18694192">
<path style=" stroke:none;fill-rule:nonzero;fill:rgb(98.039216%,28.627452%,41.176471%);fill-opacity:1;" d="M 12 24 C 5.371094 24 0 18.628906 0 12 C 0 5.371094 5.371094 0 12 0 C 18.628906 0 24 5.371094 24 12 C 24 18.628906 18.628906 24 12 24 Z M 12 24 "/>
<path style=" stroke:none;fill-rule:nonzero;fill:rgb(100%,100%,100%);fill-opacity:1;" d="M 11.128906 4.082031 C 7.476562 4.480469 4.539062 7.417969 4.140625 10.992188 C 3.746094 14.722656 5.890625 18.058594 9.144531 19.328125 C 9.382812 19.40625 9.621094 19.25 9.621094 18.929688 L 9.621094 17.660156 C 9.621094 17.660156 9.304688 17.742188 8.90625 17.742188 C 7.796875 17.742188 7.320312 16.789062 7.238281 16.230469 C 7.160156 15.914062 7 15.675781 6.761719 15.4375 C 6.523438 15.359375 6.445312 15.359375 6.445312 15.277344 C 6.445312 15.121094 6.683594 15.121094 6.761719 15.121094 C 7.238281 15.121094 7.636719 15.675781 7.796875 15.914062 C 8.191406 16.550781 8.667969 16.707031 8.90625 16.707031 C 9.226562 16.707031 9.464844 16.628906 9.621094 16.550781 C 9.703125 15.992188 9.941406 15.4375 10.414062 15.121094 C 8.589844 14.722656 7.238281 13.691406 7.238281 11.945312 C 7.238281 11.070312 7.636719 10.195312 8.191406 9.5625 C 8.113281 9.402344 8.035156 9.003906 8.035156 8.449219 C 8.035156 8.132812 8.035156 7.65625 8.273438 7.179688 C 8.273438 7.179688 9.382812 7.179688 10.496094 8.210938 C 10.890625 8.050781 11.449219 7.972656 12.003906 7.972656 C 12.558594 7.972656 13.117188 8.050781 13.59375 8.210938 C 14.625 7.179688 15.816406 7.179688 15.816406 7.179688 C 15.976562 7.65625 15.976562 8.132812 15.976562 8.449219 C 15.976562 9.085938 15.894531 9.402344 15.816406 9.5625 C 16.371094 10.195312 16.769531 10.992188 16.769531 11.945312 C 16.769531 13.691406 15.417969 14.722656 13.59375 15.121094 C 14.070312 15.515625 14.386719 16.230469 14.386719 16.945312 L 14.386719 19.011719 C 14.386719 19.25 14.625 19.488281 14.941406 19.40625 C 17.878906 18.21875 19.945312 15.359375 19.945312 12.023438 C 19.945312 7.257812 15.894531 3.527344 11.128906 4.082031 Z M 11.128906 4.082031 "/>
</g>
</svg>
